{
	"asset":{
		"generator":"Khronos glTF Blender I/O v4.2.69",
		"version":"2.0"
	},
	"scene":0,
	"scenes":[
		{
			"name":"Scene",
			"nodes":[
				0
			]
		}
	],
	"nodes":[
		{
			"mesh":0,
			"name":"yellow_onion.001",
			"translation":[
				-1.1037882566452026,
				0,
				0.07793208956718445
			]
		}
	],
	"materials":[
		{
			"doubleSided":true,
			"name":"yellow_onion.002",
			"normalTexture":{
				"index":0
			},
			"pbrMetallicRoughness":{
				"baseColorTexture":{
					"index":1
				},
				"metallicFactor":0,
				"metallicRoughnessTexture":{
					"index":2
				}
			}
		}
	],
	"meshes":[
		{
			"name":"mesh.003",
			"primitives":[
				{
					"attributes":{
						"POSITION":0,
						"NORMAL":1,
						"TEXCOORD_0":2,
						"TANGENT":3
					},
					"indices":4,
					"material":0
				}
			]
		}
	],
	"textures":[
		{
			"sampler":0,
			"source":0
		},
		{
			"sampler":0,
			"source":1
		},
		{
			"sampler":0,
			"source":2
		}
	],
	"images":[
		{
			"mimeType":"image/png",
			"name":"yellow_onion_nor_gl",
			"uri":"yellow_onion_nor_gl.png"
		},
		{
			"mimeType":"image/jpeg",
			"name":"yellow_onion_diff_4k",
			"uri":"yellow_onion_diff_4k.jpg"
		},
		{
			"mimeType":"image/png",
			"name":"yellow_onion_rough",
			"uri":"yellow_onion_rough.png"
		}
	],
	"accessors":[
		{
			"bufferView":0,
			"componentType":5126,
			"count":3349,
			"max":[
				0.03567872196435928,
				0.08610223233699799,
				0.03121955133974552
			],
			"min":[
				-0.036803681403398514,
				-0.00027344742557033896,
				-0.03741702809929848
			],
			"type":"VEC3"
		},
		{
			"bufferView":1,
			"componentType":5126,
			"count":3349,
			"type":"VEC3"
		},
		{
			"bufferView":2,
			"componentType":5126,
			"count":3349,
			"type":"VEC2"
		},
		{
			"bufferView":3,
			"componentType":5126,
			"count":3349,
			"type":"VEC4"
		},
		{
			"bufferView":4,
			"componentType":5123,
			"count":16332,
			"type":"SCALAR"
		}
	],
	"bufferViews":[
		{
			"buffer":0,
			"byteLength":40188,
			"byteOffset":0,
			"target":34962
		},
		{
			"buffer":0,
			"byteLength":40188,
			"byteOffset":40188,
			"target":34962
		},
		{
			"buffer":0,
			"byteLength":26792,
			"byteOffset":80376,
			"target":34962
		},
		{
			"buffer":0,
			"byteLength":53584,
			"byteOffset":107168,
			"target":34962
		},
		{
			"buffer":0,
			"byteLength":32664,
			"byteOffset":160752,
			"target":34963
		}
	],
	"samplers":[
		{
			"magFilter":9729,
			"minFilter":9987
		}
	],
	"buffers":[
		{
			"byteLength":193416,
			"uri":"onion.bin"
		}
	]
}
